<?xml version="1.0" standalone="no"?>
<!DOCTYPE svg PUBLIC "-//W3C//DTD SVG 20010904//EN"
 "http://www.w3.org/TR/2001/REC-SVG-20010904/DTD/svg10.dtd">
<svg version="1.0" xmlns="http://www.w3.org/2000/svg"
 width="400.000000pt" height="400.000000pt" viewBox="0 0 400.000000 400.000000"
 preserveAspectRatio="xMidYMid meet">
<metadata>
Created by potrace 1.11, written by Peter Selinger 2001-2013
</metadata>
<g transform="translate(0.000000,400.000000) scale(0.100000,-0.100000)"
fill="#000000" stroke="none">
<path d="M1766 2629 c-19 -17 -43 -48 -52 -69 -11 -25 -26 -41 -41 -45 -14 -3
-64 -44 -111 -92 -93 -91 -149 -133 -181 -133 -20 0 -20 1 1 53 12 28 28 61
35 72 34 50 4 80 -39 39 -40 -39 -68 -95 -68 -139 0 -24 -16 -63 -51 -125 -54
-94 -72 -116 -89 -105 -24 15 4 205 44 297 21 48 20 55 -4 68 -36 19 -60 1
-121 -93 -103 -157 -189 -229 -189 -158 0 38 55 193 88 250 l26 44 -22 18
c-50 40 -94 -11 -147 -173 -38 -116 -43 -172 -19 -206 19 -28 42 -28 100 -1
40 19 127 109 141 146 3 7 8 13 12 13 4 0 2 -28 -5 -62 -18 -83 -17 -133 1
-168 19 -37 69 -49 113 -26 44 23 107 100 133 162 22 53 23 54 64 54 31 0 53
8 83 30 l42 30 0 -32 c0 -73 69 -148 135 -148 54 0 142 74 230 194 14 20 32
29 60 33 l40 5 -3 -51 c-5 -72 3 -98 38 -116 l29 -15 71 142 c39 78 83 158 98
177 15 19 30 39 34 45 4 6 10 8 13 5 3 -4 -10 -42 -29 -85 -38 -89 -55 -186
-36 -210 24 -27 47 -15 79 41 36 63 132 197 138 192 2 -2 -10 -35 -27 -72 -40
-88 -53 -149 -45 -206 12 -83 78 -124 132 -81 11 9 45 49 73 87 29 39 54 71
55 73 2 2 0 -26 -2 -61 -7 -82 10 -117 71 -147 43 -20 47 -21 80 -5 38 18 56
37 146 153 56 72 70 84 70 58 0 -20 39 -46 56 -39 8 3 35 35 59 72 60 89 108
151 112 147 2 -1 -8 -23 -21 -47 -16 -29 -27 -69 -31 -115 -7 -69 -7 -72 21
-98 38 -35 68 -42 98 -23 19 13 81 85 159 184 5 7 6 20 3 29 -5 12 -20 3 -74
-46 -85 -79 -129 -113 -140 -108 -5 1 -1 36 9 76 13 53 28 87 58 126 24 31 41
64 41 79 0 28 -31 67 -52 67 -18 0 -99 -91 -163 -182 l-57 -83 6 52 c7 56 34
122 68 165 18 23 19 30 8 43 -7 8 -27 15 -45 15 -27 0 -33 -5 -43 -32 -48
-141 -73 -195 -122 -260 -67 -89 -129 -152 -171 -174 -28 -14 -33 -14 -46 -1
-13 13 -13 25 -1 93 14 78 14 79 56 99 92 44 162 126 162 188 0 37 -43 67 -94
67 -63 0 -110 -40 -162 -135 -15 -27 -30 -52 -33 -55 -3 -3 -46 -51 -94 -107
-48 -57 -95 -103 -103 -103 -24 0 -12 60 31 160 60 139 57 220 -8 220 -26 0
-106 -82 -147 -152 -25 -42 -30 -47 -25 -23 4 17 17 57 31 91 28 71 29 82 8
112 -12 17 -24 22 -47 20 -26 -2 -40 -15 -83 -76 -28 -40 -70 -113 -94 -163
-23 -49 -45 -88 -47 -85 -9 9 19 111 38 138 23 33 24 42 3 73 -25 38 -40 31
-70 -32 -15 -32 -28 -59 -28 -59 -1 -1 -20 -5 -43 -9 l-41 -7 14 48 c31 104
11 174 -60 208 -46 21 -50 21 -90 -15z m100 -43 c6 -27 -11 -123 -32 -173 -10
-26 -19 -33 -41 -33 -38 0 -53 16 -53 57 0 100 106 226 126 149z m984 -83 c0
-30 -9 -45 -56 -92 -31 -31 -59 -51 -61 -44 -5 14 52 131 80 160 26 29 37 21
37 -24z m-1085 -143 c19 -6 35 -15 35 -19 0 -18 -65 -104 -96 -127 -18 -14
-48 -27 -66 -27 -33 -2 -33 -2 -32 43 0 30 13 72 37 123 l37 79 25 -30 c14
-17 41 -36 60 -42z m446 13 c-12 -20 -14 -14 -5 12 4 9 9 14 11 11 3 -2 0 -13
-6 -23z m405 -133 c-11 -44 -14 -49 -15 -24 -1 32 20 106 25 89 2 -6 -3 -35
-10 -65z m-1529 -82 c-3 -8 -6 -5 -6 6 -1 11 2 17 5 13 3 -3 4 -12 1 -19z"/>
<path d="M1370 1993 c-62 -20 -90 -56 -90 -119 0 -48 53 -104 99 -104 39 0 87
24 101 50 14 27 -6 27 -34 1 -12 -11 -30 -21 -41 -22 -91 -13 -138 95 -67 152
33 25 83 21 117 -11 13 -12 25 -17 29 -12 6 10 -48 62 -64 62 -5 0 -14 2 -22
4 -7 3 -20 2 -28 -1z"/>
<path d="M2147 1988 c-30 -11 -46 -51 -30 -77 6 -9 34 -25 64 -36 56 -22 71
-44 49 -70 -18 -21 -67 -18 -90 5 -29 29 -47 14 -19 -16 52 -55 166 -12 143
54 -7 20 -21 31 -57 43 -27 9 -55 23 -64 32 -37 37 49 67 89 30 16 -14 18 -14
18 -1 0 33 -57 52 -103 36z"/>
<path d="M2741 1979 c-5 -13 -25 -64 -46 -113 -20 -48 -33 -91 -30 -94 8 -8
35 27 35 45 0 9 16 13 50 13 44 0 52 -3 60 -24 9 -24 28 -42 35 -34 4 4 -81
217 -90 226 -2 3 -9 -6 -14 -19z m18 -117 c-17 -2 -33 -2 -35 1 -2 2 3 21 12
43 l17 39 18 -40 18 -40 -30 -3z"/>
<path d="M3058 1992 c-37 -4 -88 -64 -88 -103 0 -61 51 -119 105 -119 34 0 82
25 95 50 15 27 -6 27 -36 -1 -79 -74 -186 50 -109 126 32 33 75 32 115 -1 37
-32 53 -24 20 10 -26 29 -64 43 -102 38z"/>
<path d="M740 1980 c0 -5 11 -10 25 -10 29 0 35 -17 34 -110 -2 -85 -1 -90 11
-90 6 0 10 40 10 100 l0 100 25 0 c14 0 25 5 25 10 0 6 -28 10 -65 10 -37 0
-65 -4 -65 -10z"/>
<path d="M1010 1880 l0 -111 63 3 c75 4 82 22 10 26 l-53 3 0 35 0 34 49 0
c68 0 75 18 9 22 l-53 3 -3 38 -3 37 55 0 c31 0 56 5 56 10 0 6 -28 10 -65 10
l-65 0 0 -110z"/>
<path d="M1630 1880 c0 -67 4 -110 10 -110 6 0 10 23 10 50 l0 50 50 0 50 0 0
-50 c0 -27 5 -50 10 -50 6 0 10 43 10 110 0 67 -4 110 -10 110 -5 0 -10 -20
-10 -44 0 -49 -8 -54 -67 -48 -32 4 -33 6 -33 48 0 24 -4 44 -10 44 -6 0 -10
-43 -10 -110z"/>
<path d="M2402 1883 c2 -64 7 -108 13 -108 6 0 11 19 13 43 3 40 5 42 35 42
48 0 77 24 77 64 0 47 -26 66 -89 66 l-52 0 3 -107z m106 75 c30 -30 0 -78
-49 -78 -28 0 -29 2 -29 45 0 44 1 45 33 45 18 0 38 -5 45 -12z"/>
<path d="M3320 1880 l0 -110 66 0 c48 0 65 3 62 13 -3 7 -26 13 -56 15 -52 3
-52 3 -52 38 l0 34 49 0 c68 0 75 18 9 22 l-53 3 -3 38 -3 37 55 0 c31 0 56 5
56 10 0 6 -28 10 -65 10 l-65 0 0 -110z"/>
</g>
</svg>
